<?xml version="1.0" encoding="UTF-8"?>
<svg id="Camada_2" data-name="Camada 2" xmlns="http://www.w3.org/2000/svg" xmlns:xlink="http://www.w3.org/1999/xlink" viewBox="0 0 1221.28 295.46">
  <defs>
    <style>
      .cls-1 {
        fill: #fa4616;
      }

      .cls-2 {
        fill: #f9f7f2;
      }

      .cls-3 {
        fill: url(#Gradiente_sem_nome_7);
      }
    </style>
    <linearGradient id="Gradiente_sem_nome_7" data-name="Gradiente sem nome 7" x1="1085.35" y1="230.28" x2="1222.07" y2="93.56" gradientUnits="userSpaceOnUse">
      <stop offset=".34" stop-color="#fa4616"/>
      <stop offset=".42" stop-color="#f94d1c"/>
      <stop offset=".55" stop-color="#f9632d"/>
      <stop offset=".7" stop-color="#f98749"/>
      <stop offset=".88" stop-color="#f8b86f"/>
      <stop offset="1" stop-color="#f8e08e"/>
    </linearGradient>
  </defs>
  <g id="Camada_1-2" data-name="Camada 1">
    <g>
      <g>
        <path class="cls-1" d="M803.7,77.34c0-10.14,5.07-17.19,16.34-17.47h4.79v-8.45h-53.13v-28.46h66.65v191.3h51.84v28.46h-86.49V77.34Z"/>
        <path class="cls-1" d="M905.97,22.97h35.78v110.44h7.32c2.25-28.74,23.95-44.52,51.56-44.52,32.12,0,51.56,20.01,51.56,55.79v98.05h-35.5v-91.28c0-22.54-13.24-34.65-31.83-34.65-26.2,0-43.11,23.67-43.11,65.08v60.86h-35.78V22.97Z"/>
        <path class="cls-1" d="M737.19,128.91c0-10.14-5.35-17.19-16.62-17.47h-4.79v-8.45h21.41v-28.46h-86.49v28.46h50.99v111.28h-50.99v28.46h137.21v-28.46h-50.71v-85.36Z"/>
        <path class="cls-3" d="M1221.28,92.77h-146.8v28.46h93.28c-86.25,15.52-99.96,54.85-94.35,84.62,5.61,29.77,34.62,47.64,69.1,38.11,34.47-9.53,35.56-42.64,35.56-42.64h7.42v41.43h35.78V92.77ZM1137.63,218.47c-47.63-3.79-35.62-70.97,47.87-74.94v17.93c0,.34-.37,60.79-47.87,57.01Z"/>
      </g>
      <g>
        <path class="cls-2" d="M630.65,148.21v-74.36h-57.25c-.3-.01-.59-.01-.89-.01-.33,0-.65,0-.97.01-10.05.11-18.77,2.1-26.16,5.95-7.63,3.97-13.95,9.92-18.97,17.87-1.46,2.3-2.81,4.77-4.07,7.41-2.35,4.91-4.36,10.39-6.03,16.45-.54,1.91-1.03,3.89-1.49,5.92h-6.28v-2.04s.14-20.33.14-20.33l.18-26.85h-36.99v164.58h45.14v-74.61c.05-2.73.2-5.4.43-7.99.66-7.34,2.03-14.14,4.12-20.38,2.82-8.46,7.05-15.3,12.69-20.52s12.64-7.84,21.01-7.84c9.82,0,17.29,4.02,22.41,12.06,1.27,2,2.38,4.28,3.34,6.86,2.9,7.83,4.35,18.34,4.35,31.54v80.88h45.45v-85.9c0-2.99-.06-5.88-.17-8.7Z"/>
        <path class="cls-2" d="M224.84,0h-73.15v31.23h58.31v9.28h-5.26c-12.37.31-17.93,8.04-17.93,19.17v181.52h94.93v-31.23h-56.9V0Z"/>
        <path class="cls-2" d="M292.29,107.84h102.38c-94.66,17.03-109.71,60.2-103.55,92.87,6.16,32.67,38,52.28,75.84,41.83,37.84-10.46,39.03-46.8,39.03-46.8h8.15v45.48h39.27V76.61h-161.12v31.23ZM414.14,152.01c0,.38-.41,66.72-52.54,62.57-52.28-4.16-39.09-77.89,52.54-82.25v19.68Z"/>
        <path class="cls-2" d="M153.99,105.01h.03c-4.99-8.36-11.3-15.17-18.92-20.41-10.45-7.21-22.98-10.82-37.61-10.82H0v221.69h45.13v-46.39c0-5.22-.31-10.6-.93-16.15-.63-5.53-1.47-11.23-2.51-17.08-.75-4.2-1.56-8.35-2.41-12.46-.34-1.6-.68-3.19-1.03-4.79h5.96c3.13,10.03,7.05,18.65,11.75,25.86,4.7,7.21,10.66,12.81,17.87,16.77,7.21,3.97,16.04,5.96,26.48,5.96,14.84,0,27.22-3.76,37.15-11.28,9.92-7.53,17.4-17.71,22.41-30.57.21-.52.41-1.04.58-1.57,4.63-12.47,6.94-26.64,6.94-42.48,0-17.76-2.77-33.17-8.31-46.24-1.51-3.57-3.2-6.91-5.09-10.04ZM119.58,170.88h0c-.63,5.95-1.88,11.43-3.75,16.44-2.82,7.52-6.85,13.37-12.07,17.55-5.22,4.18-11.59,6.27-19.12,6.27-5.02,0-9.61-.99-13.8-2.97-4.18-1.99-7.84-4.6-10.96-7.84-3.14-3.24-5.86-6.89-8.16-10.98-2.3-4.07-3.97-8.25-5.02-12.53-1.04-4.28-1.57-8.41-1.57-12.38v-5.96c0-5.02.74-10.28,2.2-15.83,1.11-4.21,2.74-8.22,4.89-12.02.67-1.19,1.39-2.36,2.16-3.5,3.24-4.81,7.25-8.67,12.07-11.6,4.8-2.92,10.55-4.39,17.23-4.39.79,0,1.57.02,2.34.08,5.73.34,10.81,1.96,15.25,4.9.64.39,1.25.83,1.85,1.31,5.43,4.18,9.61,9.98,12.54,17.4,2.92,7.42,4.38,16.35,4.38,26.8,0,3.2-.15,6.3-.47,9.26Z"/>
      </g>
    </g>
  </g>
</svg>