<?xml version="1.0" encoding="UTF-8"?>
<svg id="Camada_2" data-name="Camada 2" xmlns="http://www.w3.org/2000/svg" xmlns:xlink="http://www.w3.org/1999/xlink" viewBox="0 0 881.53 223.56">
  <defs>
    <style>
      .cls-1 {
        fill: #fa4616;
      }

      .cls-2 {
        fill: #f9f7f2;
      }

      .cls-3 {
        fill: url(#Gradiente_sem_nome_7);
      }
    </style>
    <linearGradient id="Gradiente_sem_nome_7" data-name="Gradiente sem nome 7" x1="745.6" y1="207.31" x2="882.32" y2="70.59" gradientUnits="userSpaceOnUse">
      <stop offset=".34" stop-color="#fa4616"/>
      <stop offset=".42" stop-color="#f94d1c"/>
      <stop offset=".55" stop-color="#f9632d"/>
      <stop offset=".7" stop-color="#f98749"/>
      <stop offset=".88" stop-color="#f8b86f"/>
      <stop offset="1" stop-color="#f8e08e"/>
    </linearGradient>
  </defs>
  <g id="Camada_1-2" data-name="Camada 1">
    <g>
      <g>
        <path class="cls-1" d="M463.95,54.38c0-10.14,5.07-17.19,16.34-17.47h4.79v-8.45h-53.13V0h66.65v191.3h51.84v28.46h-86.49V54.38Z"/>
        <path class="cls-1" d="M566.22,0h35.78v110.44h7.32c2.25-28.74,23.95-44.52,51.56-44.52,32.12,0,51.56,20.01,51.56,55.79v98.05h-35.5v-91.28c0-22.54-13.24-34.65-31.83-34.65-26.2,0-43.11,23.67-43.11,65.08v60.86h-35.78V0Z"/>
        <path class="cls-1" d="M397.44,105.94c0-10.14-5.35-17.19-16.62-17.47h-4.79v-8.45h21.41v-28.46h-86.49v28.46h50.99v111.28h-50.99v28.46h137.21v-28.46h-50.71v-85.36Z"/>
        <path class="cls-3" d="M881.53,69.8h-146.8v28.46h93.28c-86.25,15.52-99.96,54.85-94.35,84.62,5.61,29.77,34.62,47.64,69.1,38.11,34.47-9.53,35.56-42.64,35.56-42.64h7.42v41.43h35.78V69.8ZM797.88,195.51c-47.63-3.79-35.62-70.97,47.87-74.94v17.93c0,.34-.37,60.79-47.87,57.01Z"/>
      </g>
      <g>
        <path class="cls-2" d="M204.1,171.86v-62.74h14.1l-.12,18.76h2.39c1.03-4.54,2.51-8.32,4.42-11.35,1.91-3.03,4.32-5.3,7.23-6.81,2.91-1.51,6.35-2.27,10.34-2.27,7.25,0,12.77,2.55,16.55,7.65,3.78,5.1,5.68,13.11,5.68,24.02v32.74h-17.33v-30.83c0-6.69-.98-11.57-2.93-14.64-1.95-3.07-4.8-4.6-8.54-4.6-3.19,0-5.86,1-8.01,2.99-2.15,1.99-3.76,4.6-4.84,7.83-1.08,3.23-1.65,6.83-1.73,10.82v28.44h-17.21Z"/>
        <path class="cls-2" d="M95.42,102.05c0-4.24,2.12-7.19,6.84-7.31h2v-3.54h-22.23v-11.91h27.89v80.04h21.69v11.91h-36.19v-69.2Z"/>
        <path class="cls-2" d="M197.06,108.5h-61.42v11.91h39.03c-36.09,6.49-41.82,22.95-39.48,35.41,2.35,12.46,14.49,19.93,28.91,15.95,14.42-3.99,14.88-17.84,14.88-17.84h3.11v17.34h14.97v-62.75ZM162.06,161.1c-19.93-1.59-14.9-29.69,20.03-31.36v7.5c0,.14-.15,25.43-20.03,23.85Z"/>
        <path class="cls-2" d="M84.85,123.16c-.58-1.36-1.22-2.64-1.94-3.83h.01c-1.9-3.19-4.31-5.78-7.21-7.78-3.98-2.75-8.76-4.13-14.34-4.13H24.2v84.51h17.21v-17.69c0-1.99-.12-4.04-.36-6.15-.24-2.11-.56-4.28-.96-6.51-.28-1.6-.59-3.18-.92-4.75-.13-.61-.26-1.22-.39-1.82h2.27c1.19,3.82,2.69,7.11,4.48,9.86,1.79,2.75,4.06,4.88,6.81,6.39,2.75,1.51,6.11,2.27,10.1,2.27,5.66,0,10.38-1.44,14.16-4.3,3.78-2.87,6.63-6.75,8.54-11.65.08-.2.15-.4.22-.6,1.77-4.75,2.64-10.16,2.64-16.19,0-6.77-1.05-12.64-3.17-17.63ZM49.54,123.34c1.83-1.11,4.02-1.67,6.57-1.67.3,0,.6,0,.89.03,2.18.13,4.12.75,5.81,1.87.24.15.48.32.71.5,2.07,1.59,3.67,3.8,4.78,6.63,1.11,2.83,1.67,6.23,1.67,10.22,0,1.22-.06,2.4-.18,3.53h0c-.24,2.27-.72,4.36-1.43,6.27-1.08,2.87-2.61,5.1-4.6,6.69-1.99,1.59-4.42,2.39-7.29,2.39-1.91,0-3.67-.38-5.26-1.13-1.59-.76-2.99-1.75-4.18-2.99-1.2-1.23-2.23-2.63-3.11-4.18-.88-1.55-1.51-3.15-1.91-4.78-.4-1.63-.6-3.21-.6-4.72v-2.27c0-1.91.28-3.92.84-6.03.42-1.61,1.05-3.13,1.87-4.58.26-.45.53-.9.82-1.33,1.23-1.83,2.77-3.31,4.6-4.42Z"/>
      </g>
      <path class="cls-2" d="M287.89,52.5v166.22H1V52.5h286.89M288.89,51.5H0v168.22h288.89V51.5h0Z"/>
    </g>
  </g>
</svg>