<?xml version="1.0" encoding="UTF-8"?>
<svg id="Camada_2" data-name="Camada 2" xmlns="http://www.w3.org/2000/svg" xmlns:xlink="http://www.w3.org/1999/xlink" viewBox="0 0 1216.74 1216.74">
  <defs>
    <style>
      .cls-1 {
        fill: url(#Gradiente_sem_nome_130);
      }

      .cls-2 {
        fill: #fa4616;
      }

      .cls-3 {
        fill: #f9f7f2;
      }

      .cls-4 {
        fill: url(#Gradiente_sem_nome_7);
      }
    </style>
    <linearGradient id="Gradiente_sem_nome_130" data-name="Gradiente sem nome 130" x1="8814.48" y1="8396.29" x2="9919.49" y2="7887.03" gradientTransform="translate(11845.8361 5821.669) rotate(163.6548)" gradientUnits="userSpaceOnUse">
      <stop offset=".37" stop-color="#000"/>
      <stop offset=".67" stop-color="#b9331e"/>
      <stop offset=".82" stop-color="#ff7915"/>
      <stop offset="1" stop-color="#ffd78f"/>
    </linearGradient>
    <linearGradient id="Gradiente_sem_nome_7" data-name="Gradiente sem nome 7" x1="1036.34" y1="681.57" x2="1173.06" y2="544.85" gradientUnits="userSpaceOnUse">
      <stop offset=".34" stop-color="#fa4616"/>
      <stop offset=".42" stop-color="#f94d1c"/>
      <stop offset=".55" stop-color="#f9632d"/>
      <stop offset=".7" stop-color="#f98749"/>
      <stop offset=".88" stop-color="#f8b86f"/>
      <stop offset="1" stop-color="#f8e08e"/>
    </linearGradient>
  </defs>
  <g id="Camada_1-2" data-name="Camada 1">
    <g>
      <circle class="cls-1" cx="608.37" cy="608.37" r="608.21"/>
      <g>
        <g>
          <path class="cls-2" d="M754.69,528.63c0-10.14,5.07-17.19,16.34-17.47h4.79v-8.45h-53.13v-28.46h66.65v191.3h51.84v28.46h-86.49v-165.38Z"/>
          <path class="cls-2" d="M856.96,474.26h35.78v110.44h7.32c2.25-28.74,23.95-44.52,51.56-44.52,32.12,0,51.56,20.01,51.56,55.79v98.05h-35.5v-91.28c0-22.54-13.24-34.65-31.83-34.65-26.2,0-43.11,23.67-43.11,65.08v60.86h-35.78v-219.76Z"/>
          <path class="cls-2" d="M688.18,580.2c0-10.14-5.35-17.19-16.62-17.47h-4.79v-8.45h21.41v-28.46h-86.49v28.46h50.99v111.28h-50.99v28.46h137.21v-28.46h-50.71v-85.36Z"/>
          <path class="cls-4" d="M1172.27,544.05h-146.8v28.46h93.28c-86.25,15.52-99.96,54.85-94.35,84.62,5.61,29.77,34.62,47.64,69.1,38.11,34.47-9.53,35.56-42.64,35.56-42.64h7.42v41.43h35.78v-149.98ZM1088.62,669.76c-47.63-3.79-35.62-70.97,47.87-74.94v17.93c0,.34-.37,60.79-47.87,57.01Z"/>
        </g>
        <g>
          <path class="cls-3" d="M44.47,742.48v-197.93h33.99l.29,41.7,5.14.29c1.71-10.09,4.71-18.56,9-25.42s9.85-12,16.71-15.42c6.85-3.43,14.75-5.14,23.71-5.14,13.33,0,24.75,3.28,34.27,9.85,9.52,6.57,16.8,15.81,21.85,27.7,5.04,11.9,7.57,25.95,7.57,42.13,0,15.04-2.29,28.42-6.85,40.13-4.57,11.71-11.38,20.99-20.42,27.85-9.05,6.85-20.33,10.28-33.84,10.28-9.52,0-17.56-1.81-24.13-5.43-6.57-3.62-12-8.71-16.28-15.28s-7.85-14.42-10.71-23.56h-5.43c1.14,5.14,2.19,10.38,3.14,15.71.95,5.33,1.71,10.52,2.28,15.57.57,5.05.86,9.95.86,14.71v42.27h-41.13ZM121.59,665.65c6.85,0,12.66-1.9,17.42-5.71,4.76-3.81,8.43-9.14,11-15.99,2.57-6.85,3.86-14.66,3.86-23.42,0-9.52-1.33-17.66-4-24.42-2.67-6.76-6.48-12.04-11.42-15.85-4.95-3.81-10.85-5.71-17.71-5.71-6.1,0-11.33,1.33-15.71,4-4.38,2.67-8.05,6.19-11,10.57-2.95,4.38-5.1,9.1-6.43,14.14-1.33,5.05-2,9.85-2,14.42v5.43c0,3.62.47,7.38,1.43,11.28.95,3.9,2.47,7.71,4.57,11.42,2.09,3.71,4.57,7.05,7.43,10,2.86,2.96,6.19,5.33,10,7.14,3.81,1.81,8,2.71,12.57,2.71Z"/>
          <path class="cls-3" d="M213.26,694.5v-204.21h40.56v204.21h-40.56Z"/>
          <path class="cls-3" d="M313.22,698.5c-8.38,0-15.81-1.67-22.28-5-6.48-3.33-11.52-8.14-15.14-14.42-3.62-6.28-5.43-14.09-5.43-23.42,0-8.18,1.57-15.04,4.71-20.56,3.14-5.52,7.76-10,13.85-13.42,6.09-3.43,13.61-6.28,22.56-8.57,8.95-2.28,19.14-4.28,30.56-6,6.09-.95,11.09-1.86,14.99-2.71,3.9-.86,6.81-2.29,8.71-4.28,1.9-2,2.86-4.9,2.86-8.71,0-5.33-1.91-9.9-5.71-13.71-3.81-3.81-9.81-5.71-17.99-5.71-5.52,0-10.62.96-15.28,2.86-4.67,1.91-8.67,4.76-12,8.57-3.33,3.81-5.76,8.67-7.28,14.57l-36.27-11.14c2.28-7.81,5.57-14.57,9.85-20.28s9.47-10.52,15.57-14.42c6.09-3.9,13.04-6.81,20.85-8.71,7.81-1.9,16.28-2.86,25.42-2.86,14.66,0,26.61,2.33,35.84,7,9.23,4.67,16.14,11.9,20.71,21.71,4.57,9.81,6.85,22.42,6.85,37.84v25.7c0,6.67.14,13.42.43,20.28s.67,13.76,1.14,20.71c.47,6.95,1,13.85,1.57,20.71h-36.27c-.76-4.76-1.48-10.23-2.14-16.42-.67-6.18-1.19-12.42-1.57-18.71h-5.14c-2.67,7.24-6.48,13.81-11.42,19.71-4.95,5.9-11,10.62-18.14,14.14-7.14,3.52-15.28,5.28-24.42,5.28ZM330.64,668.79c3.61,0,7.28-.66,11-2,3.71-1.33,7.33-3.19,10.85-5.57,3.52-2.38,6.76-5.38,9.71-9,2.95-3.62,5.38-7.71,7.28-12.28l-.57-23.99,6.57,1.43c-3.43,2.48-7.43,4.43-12,5.86-4.57,1.43-9.28,2.53-14.14,3.28-4.86.76-9.67,1.62-14.42,2.57-4.76.96-9,2.19-12.71,3.71-3.71,1.53-6.67,3.57-8.85,6.14-2.19,2.57-3.28,6.14-3.28,10.71,0,5.9,1.9,10.57,5.71,14,3.81,3.43,8.76,5.14,14.85,5.14Z"/>
          <path class="cls-3" d="M431.74,694.5v-149.94h33.7l-.29,44.84h5.71c2.47-10.85,6-19.89,10.57-27.13,4.57-7.23,10.33-12.66,17.28-16.28,6.95-3.62,15.18-5.43,24.71-5.43,17.32,0,30.51,6.1,39.56,18.28,9.04,12.19,13.57,31.32,13.57,57.41v78.26h-41.41v-73.69c0-15.99-2.33-27.66-7-34.99-4.67-7.33-11.47-11-20.42-11-7.62,0-13.99,2.38-19.14,7.14-5.14,4.76-9,11-11.57,18.71-2.57,7.71-3.95,16.33-4.14,25.85v67.97h-41.13Z"/>
        </g>
      </g>
    </g>
  </g>
</svg>